HIERARCHY
ROOT Hips
{
 OFFSET 0.000000 0.000000 0.000000
 CHANNELS 6 Xposition Yposition Zposition Yrotation Xrotation Zrotation
 JOINT Chest
 {
  OFFSET 0.000000 10.757153 -1.195240
  CHANNELS 3 Yrotation Xrotation Zrotation
  JOINT Chest2
  {
   OFFSET 0.000000 9.567168 0.000000
   CHANNELS 3 Yrotation Xrotation Zrotation
   JOINT Chest3
   {
    OFFSET 0.000000 8.739719 -0.035972
    CHANNELS 3 Yrotation Xrotation Zrotation
    JOINT Chest4
    {
     OFFSET 0.000000 8.729950 -0.036009
     CHANNELS 3 Yrotation Xrotation Zrotation
     JOINT Neck
     {
      OFFSET 0.000000 12.677858 0.000000
      CHANNELS 3 Yrotation Xrotation Zrotation
      JOINT Head
      {
       OFFSET 0.000000 7.116358 0.159035
       CHANNELS 3 Yrotation Xrotation Zrotation
       End Site
       {
        OFFSET 0.000000 12.065465 0.032372
       }
      }
     }
     JOINT RightCollar
     {
      OFFSET -3.128436 7.128044 0.000000
      CHANNELS 3 Yrotation Xrotation Zrotation
      JOINT RightShoulder
      {
       OFFSET -14.902256 0.000000 0.000000
       CHANNELS 3 Yrotation Xrotation Zrotation
       JOINT RightElbow
       {
        OFFSET -24.488619 0.000000 0.000000
        CHANNELS 3 Yrotation Xrotation Zrotation
        JOINT RightWrist
        {
         OFFSET -22.569775 0.000000 0.010578
         CHANNELS 3 Yrotation Xrotation Zrotation
         End Site
         {
          OFFSET -17.224971 0.000000 0.000000
         }
        }
       }
      }
     }
     JOINT LeftCollar
     {
      OFFSET 3.128436 7.128044 0.000000
      CHANNELS 3 Yrotation Xrotation Zrotation
      JOINT LeftShoulder
      {
       OFFSET 14.902256 0.000000 0.000000
       CHANNELS 3 Yrotation Xrotation Zrotation
       JOINT LeftElbow
       {
        OFFSET 24.488619 0.000000 0.000000
        CHANNELS 3 Yrotation Xrotation Zrotation
        JOINT LeftWrist
        {
         OFFSET 22.569775 0.000000 0.010578
         CHANNELS 3 Yrotation Xrotation Zrotation
         End Site
         {
          OFFSET 17.224971 0.000000 0.000000
         }
        }
       }
      }
     }
    }
   }
  }
 }
 JOINT RightHip
 {
  OFFSET -8.989197 0.089105 -0.009901
  CHANNELS 3 Yrotation Xrotation Zrotation
  JOINT RightKnee
  {
   OFFSET 0.000000 -45.863078 0.005797
   CHANNELS 3 Yrotation Xrotation Zrotation
   JOINT RightAnkle
   {
    OFFSET 0.000000 -39.189248 0.026887
    CHANNELS 3 Yrotation Xrotation Zrotation
    JOINT RightToe
    {
     OFFSET 0.000000 -7.245664 16.131599
     CHANNELS 3 Yrotation Xrotation Zrotation
     End Site
     {
      OFFSET 0.000000 -1.462960 6.296980
     }
    }
   }
  }
 }
 JOINT LeftHip
 {
  OFFSET 8.989197 0.086990 -0.009666
  CHANNELS 3 Yrotation Xrotation Zrotation
  JOINT LeftKnee
  {
   OFFSET 0.000000 -45.863078 0.005797
   CHANNELS 3 Yrotation Xrotation Zrotation
   JOINT LeftAnkle
   {
    OFFSET 0.000000 -39.189248 0.026887
    CHANNELS 3 Yrotation Xrotation Zrotation
    JOINT LeftToe
    {
     OFFSET 0.000000 -7.245664 16.131599
     CHANNELS 3 Yrotation Xrotation Zrotation
     End Site
     {
      OFFSET 0.000000 -1.462960 6.296980
     }
    }
   }
  }
 }
}
MOTION
Frames: 11
Frame Time: 0.016667
-180.107252 93.623190 108.478583 -126.230590 31.960746 -1.147018 2.313279 10.814664 -1.361646 1.121922 -1.026238 -0.654330 1.125746 4.793076 -0.540041 0.805473 9.430363 -0.418405 0.211807 2.474584 -2.018805 1.720817 -31.389217 -4.373884 13.395675 -6.159487 4.681961 27.214907 -37.106213 46.502777 20.381556 -36.210650 1.750401 -7.028413 -9.226325 4.464597 -11.760980 -7.885741 -5.858139 -13.386355 -29.801187 -66.485417 -25.833655 -7.533140 0.928309 -3.272322 -3.007937 11.608550 10.572043 -28.337500 -4.417284 1.222318 -1.827720 1.065384 -8.569860 -2.404754 -1.728001 0.000000 -0.000000 -0.000000 0.453899 -33.021910 3.038081 1.835492 -4.512542 -2.221714 4.031972 5.439366 1.730742 -0.000109 0.002079 0.053272
-180.111369 93.632169 108.422660 -126.186803 31.517334 -1.096899 2.319974 10.663568 -1.349088 1.123660 -1.093360 -0.648342 1.127353 4.725950 -0.533888 0.807074 9.380030 -0.413595 0.217183 2.698394 -2.056245 1.741733 -30.972121 -4.442286 13.216362 -6.119248 4.637441 26.878301 -36.595048 47.050166 20.468226 -35.779846 1.989919 -7.302132 -9.291706 4.686933 -11.410764 -7.901300 -5.896903 -12.940662 -29.381344 -66.654116 -25.967495 -6.749175 0.567258 -3.228693 -2.871268 10.737666 10.482186 -27.918357 -4.294368 1.326127 -1.737284 1.042568 -8.641614 -2.494011 -1.769579 -0.000000 0.000000 -0.000000 0.578481 -32.588969 2.966815 1.743004 -4.439871 -2.218197 4.038551 5.324171 1.671362 -0.000000 -0.000000 0.000000
-180.114316 93.639679 108.355973 -126.125815 31.052282 -1.051087 2.314670 10.512592 -1.333267 1.119847 -1.160375 -0.640635 1.123393 4.658943 -0.526582 0.804590 9.329795 -0.407869 0.226266 2.893829 -2.076321 1.761112 -30.608214 -4.478150 13.049663 -6.067449 4.633160 26.364507 -36.211632 47.716901 20.365406 -35.117233 2.355773 -7.431743 -9.519731 4.799068 -11.090149 -7.912887 -5.956270 -12.527419 -29.002152 -66.744283 -25.815137 -5.957044 0.153720 -3.307088 -2.576904 9.893225 10.347673 -27.461407 -4.123921 1.432439 -1.681184 0.993359 -8.694975 -2.555046 -1.808170 0.000000 -0.000000 0.000000 0.725521 -32.131220 2.901252 1.596529 -4.375593 -2.223223 4.064901 5.214466 1.592606 0.000000 0.000000 0.000000
-180.114695 93.645925 108.281829 -126.045633 30.567259 -1.004564 2.305725 10.360828 -1.312869 1.114109 -1.227709 -0.630820 1.117501 4.591622 -0.517362 0.800791 9.279331 -0.400678 0.234960 3.074020 -2.087345 1.774913 -30.272971 -4.495732 12.890651 -5.999271 4.657073 25.728274 -35.889680 48.469550 20.145400 -34.330550 2.783888 -7.440951 -9.838833 4.807404 -10.790966 -7.924891 -6.026031 -12.152181 -28.641466 -66.772072 -25.459589 -5.156568 -0.313699 -3.459472 -2.222812 9.050493 10.185962 -26.976655 -3.926974 1.544859 -1.640345 0.929760 -8.748035 -2.604167 -1.847567 -0.000000 0.000000 0.000000 0.876391 -31.657831 2.843175 1.419158 -4.305492 -2.231771 4.102028 5.103441 1.497731 0.000000 0.000000 -0.000000
-180.105088 93.649690 108.205957 -125.927996 30.076368 -0.948575 2.294687 10.210239 -1.282824 1.106814 -1.294475 -0.616708 1.110053 4.524869 -0.504001 0.796121 9.229303 -0.390339 0.236049 3.253752 -2.101917 1.775075 -29.938767 -4.516038 12.724001 -5.925441 4.706321 25.068196 -35.491577 49.239836 19.997342 -33.729955 3.212049 -7.334815 -10.105215 4.756973 -10.534060 -7.927470 -6.070181 -11.901571 -28.243668 -66.757296 -24.990637 -4.510843 -0.756750 -3.699560 -1.966515 8.269482 10.032980 -26.494744 -3.741500 1.660872 -1.580747 0.872972 -8.841324 -2.667191 -1.890418 -0.000000 0.000000 -0.000000 0.976766 -31.207816 2.805942 1.258682 -4.188263 -2.232607 4.119499 4.976835 1.383756 0.000000 -0.000000 0.000000
-180.083239 93.648910 108.132058 -125.766212 29.582830 -0.875072 2.286606 10.062960 -1.243677 1.100253 -1.359734 -0.598654 1.103346 4.459624 -0.486625 0.792289 9.180416 -0.376968 0.222447 3.436808 -2.124653 1.749474 -29.598721 -4.544171 12.558079 -5.850588 4.788707 24.401370 -34.956964 49.981671 19.984562 -33.462608 3.647313 -7.067708 -10.269936 4.639804 -10.350360 -7.910578 -6.065210 -11.832497 -27.790300 -66.680685 -24.397815 -4.119156 -1.159914 -4.038027 -1.872659 7.495808 9.902768 -26.029456 -3.588601 1.783726 -1.479270 0.835048 -8.992498 -2.763980 -1.939456 -0.000000 -0.000000 -0.000000 0.996591 -30.797109 2.794205 1.138560 -3.999438 -2.222795 4.111209 4.821556 1.246573 -0.000000 0.000000 0.000000
-180.051403 93.645650 108.056430 -125.567936 29.083229 -0.793496 2.276000 9.916753 -1.195218 1.091969 -1.424467 -0.576434 1.094909 4.394910 -0.465259 0.787441 9.131936 -0.360566 0.201395 3.619443 -2.151150 1.710719 -29.259644 -4.575679 12.383460 -5.769980 4.896377 23.718533 -34.346200 50.733735 20.032221 -33.381819 4.091080 -6.684182 -10.379000 4.463674 -10.210105 -7.885071 -6.036533 -11.885269 -27.301944 -66.571150 -23.681991 -3.878412 -1.541949 -4.454671 -1.874397 6.785712 9.780546 -25.567408 -3.445452 1.910079 -1.358987 0.804424 -9.183843 -2.874757 -1.991711 -0.000000 -0.000000 0.000000 0.967496 -30.409949 2.800570 1.035232 -3.763426 -2.205328 4.083483 4.650586 1.090451 0.000000 0.000000 -0.000000
-180.008933 93.644883 107.973695 -125.336351 28.581735 -0.721423 2.248338 9.767007 -1.131469 1.075109 -1.490679 -0.547087 1.077874 4.328726 -0.437638 0.776594 9.082370 -0.339363 0.187302 3.805139 -2.180357 1.687797 -28.914467 -4.616807 12.158769 -5.679985 5.001645 23.081772 -33.705877 51.555293 20.115000 -33.359032 4.480441 -6.324851 -10.432586 4.297411 -10.043228 -7.872258 -6.020656 -11.971626 -26.781249 -66.520392 -22.945707 -3.653851 -1.877525 -4.909163 -1.933843 6.364061 9.658557 -25.098812 -3.282967 2.027497 -1.255129 0.766814 -9.402848 -2.965912 -2.041273 0.000000 -0.000000 0.000000 0.928136 -30.037867 2.819742 0.925991 -3.512184 -2.177815 4.024518 4.488671 0.925091 -0.000000 0.000000 -0.000000
-179.951308 93.650182 107.881286 -125.068404 28.083542 -0.667825 2.196159 9.613922 -1.047707 1.046056 -1.558237 -0.508380 1.048617 4.261219 -0.401898 0.757169 9.031835 -0.311924 0.185099 3.984859 -2.213695 1.692171 -28.579676 -4.673867 11.855279 -5.604682 5.094342 22.538051 -33.015595 52.446619 20.214088 -33.331656 4.839146 -6.044504 -10.450746 4.171907 -9.814575 -7.896460 -6.023297 -12.117889 -26.209672 -66.528483 -22.190431 -3.360908 -2.154777 -5.400049 -2.090555 6.269786 9.544811 -24.625018 -3.088000 2.138408 -1.183083 0.709879 -9.670091 -3.013859 -2.086298 -0.000000 -0.000000 -0.000000 0.887585 -29.690663 2.853319 0.797206 -3.244405 -2.131347 3.931494 4.344347 0.743280 0.000000 -0.000000 0.000000
-179.883048 93.657974 107.781770 -124.767238 27.583488 -0.624566 2.125995 9.457265 -0.949396 1.008090 -1.627287 -0.462876 1.010430 4.192243 -0.360268 0.731474 8.980213 -0.279968 0.189873 4.167634 -2.249436 1.711953 -28.238800 -4.739656 11.502129 -5.519314 5.181581 22.041811 -32.294482 53.406718 20.346965 -33.361741 5.144968 -5.789590 -10.414628 4.057478 -9.558668 -7.932741 -6.037391 -12.296572 -25.606983 -66.598477 -21.412911 -3.087072 -2.385097 -5.923112 -2.304372 6.464580 9.431617 -24.145109 -2.872662 2.240425 -1.127178 0.645769 -9.965064 -3.042326 -2.128643 0.000000 -0.000000 -0.000000 0.837023 -29.358630 2.899892 0.662518 -2.961527 -2.074608 3.807246 4.208790 0.552464 0.000000 -0.000000 0.000000
-179.817070 93.662521 107.677469 -124.445127 27.070269 -0.583342 2.044267 9.291823 -0.845926 0.964696 -1.700230 -0.414855 0.966809 4.119375 -0.316673 0.701855 8.925672 -0.246493 0.201129 4.384022 -2.281535 1.740599 -27.835389 -4.799473 11.145849 -5.346948 5.260697 21.511070 -31.645703 54.497152 20.546018 -33.508351 5.264735 -5.539284 -10.268741 3.932177 -9.309164 -7.928088 -6.079152 -12.340717 -25.031299 -66.817009 -20.708101 -2.959020 -2.573321 -6.434273 -2.418794 7.053051 9.288353 -23.645541 -2.646973 2.313940 -1.076340 0.596577 -10.213594 -3.088601 -2.168108 0.000000 -0.000000 -0.000000 0.787739 -29.004047 2.951030 0.540093 -2.699618 -2.031397 3.648307 4.080724 0.384286 -0.000000 -0.000000 -0.000000
